<?xml version="1.0" standalone="no"?>
<!DOCTYPE svg PUBLIC "-//W3C//DTD SVG 20010904//EN"
 "http://www.w3.org/TR/2001/REC-SVG-20010904/DTD/svg10.dtd">
<svg version="1.0" xmlns="http://www.w3.org/2000/svg"
 width="1132.000000pt" height="1132.000000pt" viewBox="0 0 1132.000000 1132.000000"
 preserveAspectRatio="xMidYMid meet">

<g transform="translate(0.000000,1132.000000) scale(0.100000,-0.100000)"
fill="#000000" stroke="none">
<path d="M4375 9622 c-2 -2 -18 -5 -36 -7 -59 -7 -69 -11 -89 -33 -11 -12 -26
-19 -33 -16 -20 7 -67 -13 -67 -30 0 -7 -9 -24 -20 -37 l-20 -24 3 25 c2 14 2
19 0 12 -3 -8 -12 -10 -25 -6 -14 4 -24 -1 -35 -16 -8 -12 -20 -19 -27 -17
-21 8 -56 -12 -56 -33 0 -11 -5 -20 -11 -20 -5 0 -7 5 -4 10 3 6 2 10 -3 10
-5 0 -20 -16 -33 -35 -24 -35 -40 -40 -47 -14 -3 11 -2 11 7 -1 8 -12 10 -11
8 7 -1 17 -4 20 -15 11 -7 -6 -11 -17 -8 -24 3 -7 -6 -22 -20 -33 -14 -11 -23
-24 -20 -29 9 -15 -18 -32 -42 -27 -17 3 -26 -4 -39 -28 -9 -18 -18 -36 -18
-42 -1 -5 -3 -14 -4 -20 -1 -5 -5 -4 -10 4 -7 11 -11 9 -20 -8 -7 -12 -16 -19
-20 -16 -5 2 -11 -8 -14 -24 -4 -16 -14 -32 -24 -35 -10 -3 -29 -24 -43 -45
-13 -22 -27 -38 -31 -35 -4 2 -12 -10 -18 -28 -6 -17 -14 -28 -18 -25 -15 16
-75 -99 -67 -128 4 -16 3 -17 -5 -5 -9 12 -11 12 -17 -3 -3 -9 -4 -23 -1 -30
3 -8 -5 -22 -18 -31 -14 -10 -21 -24 -18 -32 3 -9 -8 -34 -25 -57 -16 -23 -30
-46 -31 -52 -3 -30 -34 -105 -42 -105 -6 0 -7 -5 -3 -11 3 -6 -4 -25 -17 -42
-12 -17 -18 -32 -12 -34 11 -4 -16 -73 -28 -73 -4 0 -13 -25 -19 -55 -6 -30
-15 -53 -20 -50 -5 3 -14 -12 -19 -33 -11 -39 -40 -86 -41 -64 0 24 -16 12
-25 -20 -7 -23 -15 -32 -27 -30 -9 1 -20 -3 -24 -9 -4 -8 -3 -9 4 -5 7 4 12 2
12 -4 0 -7 7 -7 23 1 12 7 -1 -11 -29 -39 -37 -38 -54 -64 -64 -102 -8 -28
-18 -54 -24 -57 -5 -4 -7 1 -3 10 3 9 1 19 -5 23 -7 4 -8 3 -4 -4 4 -7 2 -12
-4 -12 -7 0 -10 -6 -7 -14 3 -8 -2 -16 -15 -19 -11 -3 -17 -10 -14 -15 3 -6
-7 -15 -23 -20 -22 -8 -32 -20 -40 -47 -5 -20 -7 -44 -4 -53 4 -15 3 -15 -6
-2 -9 13 -12 11 -17 -8 -6 -20 -12 -23 -35 -18 -25 5 -29 2 -29 -15 0 -18 2
-19 15 -9 23 19 25 8 4 -14 -11 -11 -19 -14 -19 -8 0 23 -16 12 -27 -18 -7
-18 -18 -30 -30 -30 -12 0 -14 -3 -6 -8 8 -5 4 -21 -18 -55 -16 -26 -24 -47
-17 -47 6 0 0 -13 -15 -28 -15 -15 -27 -35 -27 -44 0 -9 -7 -18 -15 -22 -8 -3
-14 -11 -13 -18 2 -7 -2 -12 -9 -11 -6 2 -11 -6 -10 -17 1 -11 6 -16 12 -12
220 137 431 336 632 599 77 99 103 149 248 468 210 463 316 635 502 818 202
198 391 277 667 277 184 0 389 -43 553 -116 30 -13 60 -21 66 -17 5 3 7 1 4
-4 -11 -18 31 -22 45 -5 11 13 10 15 -10 10 -12 -4 -20 -3 -17 2 3 4 -3 11
-12 14 -14 6 -15 9 -4 15 8 6 9 11 3 15 -6 3 -13 2 -17 -4 -10 -16 -28 -11
-21 6 5 13 1 15 -19 12 -13 -3 -22 -1 -19 3 6 10 -40 34 -84 44 -17 3 -68 25
-113 47 -44 21 -95 41 -112 44 -86 10 -176 11 -186 1 -6 -6 -11 -7 -11 -1 0 8
-316 14 -325 6z m-385 -206 c0 -2 -8 -10 -17 -17 -16 -13 -17 -12 -4 4 13 16
21 21 21 13z m-453 -442 c-3 -3 -12 -4 -19 -1 -8 3 -5 6 6 6 11 1 17 -2 13 -5z
m-477 -938 c0 -2 -8 -10 -17 -17 -16 -13 -17 -12 -4 4 13 16 21 21 21 13z
m-110 -179 c-37 -34 -60 -41 -60 -17 0 11 5 20 11 20 5 0 7 -4 4 -10 -11 -18
5 -11 32 15 15 13 29 22 32 19 3 -2 -6 -15 -19 -27z m-40 -51 c0 -3 -4 -8 -10
-11 -5 -3 -10 -1 -10 4 0 6 5 11 10 11 6 0 10 -2 10 -4z m-140 -165 c0 -5 -6
-12 -12 -15 -10 -5 -10 -7 0 -12 12 -6 7 -24 -7 -24 -7 0 -8 20 -2 53 2 10 21
9 21 -2z m-85 -181 c-3 -5 -11 -10 -16 -10 -6 0 -7 5 -4 10 3 6 11 10 16 10 6
0 7 -4 4 -10z"/>
<path d="M4515 9519 c-277 -35 -510 -205 -727 -528 -83 -125 -144 -244 -313
-616 -94 -207 -142 -299 -183 -355 -178 -240 -376 -445 -550 -569 -56 -40
-100 -76 -97 -81 3 -4 -3 -7 -12 -6 -10 0 -18 -6 -18 -14 0 -8 -7 -14 -15 -13
-8 1 -24 -10 -36 -25 -24 -31 -42 -78 -26 -68 7 4 10 -6 9 -28 -1 -19 -6 -32
-10 -29 -4 3 -5 -6 -2 -20 4 -14 2 -28 -4 -31 -6 -4 -11 0 -11 8 0 9 -4 16 -9
16 -5 0 -9 -17 -9 -37 1 -52 -8 -96 -26 -132 -9 -16 -13 -37 -10 -45 3 -9 1
-16 -5 -16 -16 0 -13 -26 5 -44 14 -15 14 -16 0 -16 -9 0 -16 -6 -16 -14 0 -8
-6 -16 -12 -19 -7 -2 -10 -8 -6 -12 4 -4 16 -2 25 6 10 7 8 2 -5 -13 -16 -17
-25 -42 -28 -78 -2 -28 -6 -56 -10 -61 -11 -18 14 -8 117 44 121 61 298 177
419 273 196 157 455 440 592 648 127 193 179 308 295 651 110 325 178 476 321
720 105 176 210 285 332 343 138 66 254 75 420 35 82 -19 225 -88 310 -147
l65 -46 13 68 c13 69 10 98 -8 87 -6 -4 -9 -1 -8 6 4 15 -175 89 -287 119
-162 43 -333 57 -480 39z m-1230 -1829 c-3 -5 -11 -10 -16 -10 -6 0 -7 5 -4
10 3 6 11 10 16 10 6 0 7 -4 4 -10z m-14 -38 c-5 -10 -17 -24 -25 -32 -9 -7
-16 -18 -16 -26 0 -18 -37 -37 -45 -24 -8 12 41 73 70 88 27 14 27 14 16 -6z
m-248 -252 c3 -11 1 -18 -4 -14 -5 3 -9 12 -9 20 0 20 7 17 13 -6z m-36 -53
c-19 -29 -51 -34 -36 -5 5 10 16 18 24 18 8 0 15 5 15 12 0 6 3 8 6 5 4 -4 0
-17 -9 -30z m-387 -68 c0 -5 5 -7 10 -4 6 3 10 2 10 -3 0 -17 -13 -21 -26 -7
-16 16 -18 25 -4 25 6 0 10 -5 10 -11z m-84 -361 c-18 -26 -22 -17 -5 14 6 11
13 17 16 15 3 -3 -2 -16 -11 -29z"/>
<path d="M3906 9445 c-11 -8 -15 -15 -9 -15 6 0 16 7 23 15 16 19 11 19 -14 0z"/>
<path d="M4596 9375 c-140 -39 -270 -142 -369 -295 -154 -237 -242 -428 -367
-795 -55 -162 -117 -322 -155 -400 -111 -229 -267 -446 -480 -664 -233 -240
-469 -415 -736 -547 -70 -35 -91 -50 -102 -76 -23 -52 -36 -96 -30 -102 4 -3
1 -6 -6 -6 -11 0 -34 -43 -36 -66 0 -6 -6 -19 -14 -28 -7 -9 -10 -16 -6 -16 3
0 -8 -15 -26 -32 -18 -18 -36 -32 -40 -31 -4 1 -5 -7 -2 -17 4 -14 0 -20 -11
-20 -9 0 -19 -7 -23 -16 -4 -10 -13 -14 -29 -10 -26 7 -42 -9 -18 -18 13 -5
14 -9 4 -21 -20 -24 -42 -19 -35 8 5 17 4 19 -4 7 -6 -8 -11 -32 -11 -52 0
-27 -6 -41 -22 -52 -16 -12 -24 -13 -29 -4 -4 7 -6 15 -3 19 2 4 -5 5 -16 2
-11 -3 -20 -9 -20 -14 0 -5 6 -6 13 -3 19 7 19 -37 0 -58 -9 -10 -22 -18 -30
-18 -8 0 -12 -4 -9 -9 3 -5 -7 -8 -23 -7 -17 1 -28 -1 -25 -5 2 -4 -2 -9 -10
-12 -8 -3 -13 -14 -12 -24 2 -10 1 -12 -1 -5 -7 18 -23 15 -23 -5 -1 -18 -22
-53 -33 -53 -3 0 -13 7 -21 16 -12 12 -16 12 -16 2 0 -19 -27 -39 -80 -62 -55
-24 -131 -66 -148 -82 -9 -9 -11 -52 -10 -161 l3 -149 -39 -79 c-29 -60 -58
-98 -115 -155 -72 -71 -217 -180 -240 -180 -24 0 -8 18 52 58 134 88 228 185
278 285 36 71 44 130 34 263 -6 87 -9 96 -21 79 -8 -10 -14 -15 -14 -10 0 4
-9 0 -19 -9 -19 -17 -19 -17 -14 6 5 21 3 20 -18 -7 -17 -21 -31 -29 -48 -27
-14 2 -21 0 -17 -7 4 -6 -3 -20 -15 -32 -16 -16 -23 -18 -29 -9 -5 9 -12 6
-22 -9 -9 -13 -21 -19 -31 -16 -10 4 -17 -1 -22 -14 -3 -12 -12 -21 -20 -21
-7 0 -25 -15 -40 -32 -14 -18 -23 -25 -19 -15 3 9 3 17 0 17 -4 0 -11 -12 -16
-26 -7 -18 -15 -24 -26 -20 -8 3 -12 1 -9 -4 3 -5 -12 -26 -35 -46 -22 -20
-40 -43 -40 -50 0 -8 -10 -18 -23 -23 -12 -5 -28 -22 -36 -37 -26 -55 -28 -59
-41 -59 -13 0 -62 -80 -53 -88 2 -3 0 -14 -6 -24 -10 -17 -10 -17 -11 0 0 10
-5 15 -10 12 -6 -4 -7 -11 -4 -17 4 -6 2 -13 -3 -17 -11 -6 -63 -130 -63 -148
0 -6 -7 -16 -15 -23 -8 -7 -13 -16 -10 -20 3 -4 -2 -13 -9 -20 -8 -6 -15 -19
-15 -28 -1 -40 -7 -78 -14 -89 -5 -8 -3 -13 4 -13 8 0 8 -4 2 -12 -6 -7 -14
-31 -18 -53 -5 -22 -10 -44 -11 -50 -2 -5 -6 -23 -9 -40 -13 -65 -36 -135 -45
-135 -6 0 -10 -4 -10 -10 0 -37 -176 -223 -272 -287 -75 -49 -88 -63 -62 -63
16 0 16 -1 -1 -14 -11 -8 -23 -12 -27 -10 -14 9 -48 -17 -48 -37 0 -13 -6 -19
-17 -17 -15 3 -17 -4 -15 -37 7 -87 145 -471 268 -746 61 -136 68 -146 90
-141 20 4 25 0 30 -27 4 -17 10 -31 13 -31 13 0 31 24 31 41 0 21 16 33 30 24
8 -5 7 -11 -1 -21 -10 -12 -9 -13 5 -8 9 3 15 14 14 22 -2 10 4 17 16 17 11 0
22 7 24 15 5 13 3 13 -11 1 -15 -12 -17 -11 -17 12 0 28 37 46 47 21 3 -8 9
-14 14 -14 4 0 6 6 3 14 -3 9 4 15 23 19 33 6 44 0 23 -13 -10 -6 -11 -12 -5
-19 7 -6 16 -5 28 4 18 13 18 15 2 39 -18 27 -14 56 6 56 6 0 9 -7 5 -15 -4
-11 1 -15 17 -14 12 0 16 3 10 6 -7 2 -13 9 -13 14 0 5 6 8 13 7 6 -2 11 2 10
8 -3 18 39 52 44 36 3 -6 9 -10 14 -7 4 3 22 -1 38 -10 35 -18 51 -19 51 -4 0
6 -7 9 -15 5 -8 -3 -15 -1 -15 4 0 6 11 10 25 10 14 0 25 -6 25 -13 0 -8 11
-19 25 -25 33 -15 36 -15 29 2 -3 8 -1 17 4 20 5 3 12 -4 15 -15 5 -18 12 -21
46 -17 23 2 41 0 41 -5 0 -4 4 -5 10 -2 5 3 22 -1 38 -9 16 -8 39 -14 51 -13
22 1 23 8 6 49 -4 11 -3 18 4 18 6 0 14 -13 18 -30 4 -21 11 -30 25 -30 10 0
16 -4 13 -10 -11 -19 10 -10 28 11 12 14 24 18 35 14 35 -15 63 -17 76 -5 11
8 20 9 35 0 12 -6 21 -7 21 -2 0 5 17 14 39 20 48 15 54 15 45 1 -4 -8 0 -8
15 0 16 9 21 9 21 0 0 -8 7 -6 18 4 10 10 23 17 28 17 5 0 15 9 22 20 7 12 8
20 2 20 -5 0 -10 5 -10 10 0 16 27 11 34 -6 4 -11 13 -14 29 -10 17 4 30 -2
51 -24 16 -18 22 -30 14 -30 -7 0 6 -9 29 -21 l42 -20 20 20 c12 12 27 21 34
21 8 -1 7 -5 -3 -13 -28 -22 -13 -44 28 -42 29 2 38 7 42 25 5 22 5 22 19 -3
15 -28 34 -28 24 -1 -5 14 -3 15 15 5 18 -9 22 -9 22 2 0 8 6 20 14 26 11 9
15 5 20 -20 l6 -32 25 27 c14 15 23 32 20 37 -4 5 -1 9 5 9 6 0 13 -13 16 -30
4 -16 10 -27 15 -25 4 3 27 8 51 11 24 3 49 13 56 22 10 14 14 14 21 4 7 -11
9 -11 14 2 4 9 11 16 17 16 6 0 9 -4 6 -8 -2 -4 12 -8 32 -8 20 0 44 -3 53 -7
13 -7 21 7 44 70 15 43 56 135 90 204 110 222 230 398 429 626 75 87 106 129
106 147 0 16 -6 26 -15 26 -12 0 -13 9 -8 45 3 28 2 45 -5 45 -5 0 -9 7 -8 16
0 9 -4 19 -11 21 -7 3 -9 -3 -6 -17 4 -15 2 -19 -10 -15 -17 7 -17 37 0 48 13
8 6 40 -6 32 -4 -2 -8 9 -8 25 0 36 -21 63 -45 57 -10 -3 -18 -1 -18 4 0 5 5
10 10 10 6 1 15 2 21 3 7 0 13 13 15 29 1 16 -1 25 -7 21 -6 -3 -7 5 -4 23 5
22 4 25 -5 13 -9 -12 -11 -10 -7 13 2 15 1 27 -3 27 -4 0 -5 11 -2 25 5 30
-12 33 -42 7 -19 -15 -19 -15 -7 0 7 9 10 22 6 28 -3 6 3 10 14 10 24 0 25 4
10 32 -9 17 -13 18 -20 7 -6 -9 -7 -4 -4 16 11 60 -7 62 -82 10 -289 -205
-562 -522 -731 -852 -109 -212 -160 -383 -172 -573 l-7 -115 -1 91 c-3 170 45
348 154 571 69 141 191 332 294 459 101 125 285 302 412 397 l117 88 -5 47
c-3 26 -5 71 -6 100 -2 54 -5 60 -27 40 -11 -11 -11 -9 0 9 7 12 18 19 24 15
5 -3 4 1 -3 10 -7 8 -10 24 -6 34 3 11 2 15 -3 8 -4 -6 -17 -14 -28 -18 -17
-6 -17 -4 4 18 14 15 20 26 14 26 -6 0 -8 12 -5 26 3 17 1 25 -5 21 -14 -9
-22 36 -11 56 5 10 4 18 -2 22 -8 5 -7 12 2 23 11 13 11 15 -3 10 -12 -5 -16
-1 -14 15 4 32 4 33 15 17 5 -8 12 -11 17 -7 4 5 1 12 -6 16 -7 5 -10 14 -7
20 4 6 2 11 -3 11 -6 0 -11 -5 -11 -12 0 -6 -3 -9 -6 -5 -3 3 -2 12 2 19 12
18 11 61 -1 70 -5 4 -3 9 6 13 11 4 14 16 11 41 -3 28 -8 34 -21 28 -9 -4 -24
-7 -33 -8 -9 0 -16 -4 -15 -9 1 -5 -70 -59 -158 -119 -223 -154 -313 -226
-441 -353 -166 -165 -269 -309 -365 -510 -132 -275 -176 -528 -167 -965 3
-135 1 -216 -2 -180 -12 102 -11 471 1 578 42 388 188 718 446 1007 139 155
281 272 551 454 100 68 122 87 117 102 -5 14 0 21 17 28 13 5 30 16 37 25 7 9
19 16 26 16 7 0 15 7 19 15 4 12 -3 15 -32 15 -63 0 -112 12 -112 26 0 17 -8
15 74 20 56 4 72 2 89 -13 11 -10 18 -13 15 -8 -4 6 2 28 13 49 10 22 19 44
19 49 0 6 11 25 26 44 28 37 25 44 -6 11 -11 -12 -20 -16 -20 -10 0 7 19 26
43 43 23 17 46 40 50 52 6 17 10 18 17 8 9 -16 40 -7 39 11 0 10 -2 10 -6 1
-6 -16 -23 -17 -23 -2 0 16 56 65 69 61 6 -2 11 1 11 6 0 9 30 24 50 27 3 0
19 10 37 23 18 12 46 28 63 33 16 6 30 15 30 20 0 5 -22 32 -50 61 -27 28 -48
53 -46 56 11 11 81 -26 95 -50 24 -42 33 -34 29 26 -2 45 -1 52 11 43 9 -7 11
-24 8 -50 -5 -37 -5 -38 14 -21 10 9 19 12 19 6 0 -6 -5 -14 -10 -17 -6 -4 -8
-11 -4 -16 4 -6 16 -2 29 11 13 12 28 19 33 16 5 -3 18 4 28 15 10 11 23 18
30 15 12 -5 50 20 94 61 12 12 27 20 32 16 6 -3 23 4 39 16 15 11 31 21 35 21
4 0 16 8 26 17 13 11 34 16 70 15 47 -1 55 2 91 39 22 21 42 39 46 39 17 0
181 261 181 288 0 9 9 43 20 76 17 50 30 152 42 323 2 24 -1 39 -6 36 -5 -4
-7 1 -3 11 4 10 2 27 -5 39 -7 12 -11 30 -9 40 1 9 -2 17 -6 17 -5 0 -17 23
-27 50 -10 28 -21 50 -25 50 -3 0 -21 -51 -39 -113 -67 -226 -185 -493 -317
-716 -63 -106 -202 -302 -224 -315 -21 -14 -10 7 30 55 137 164 340 530 432
780 57 157 109 328 101 340 -3 5 -20 9 -37 9 -18 0 -43 7 -55 16 -34 23 -181
104 -190 104 -5 0 -20 -39 -36 -87 -98 -312 -280 -662 -459 -882 -221 -271
-540 -510 -1045 -783 -103 -55 -224 -125 -269 -155 -84 -56 -237 -182 -281
-231 -16 -18 -21 -20 -14 -7 12 23 95 104 167 162 88 71 196 138 365 228 632
336 999 642 1233 1029 109 181 223 429 288 631 33 101 36 130 14 139 -8 3 -15
12 -15 21 0 8 -3 15 -8 15 -13 0 -44 83 -49 135 -4 44 1 88 21 174 3 13 24 41
46 61 22 20 40 43 40 52 0 11 17 22 48 32 111 37 232 149 296 274 9 18 35 110
57 205 43 189 75 267 144 356 157 205 354 274 559 197 74 -28 126 -59 215
-129 l64 -50 -6 33 c-4 18 -7 52 -7 76 0 26 -5 44 -11 44 -6 0 -28 13 -48 28
-86 68 -221 133 -336 163 -83 22 -226 24 -299 4z m-763 -2354 c-5 -3 -13 -15
-16 -25 -4 -10 -10 -16 -14 -12 -3 3 2 22 13 42 14 25 20 30 22 18 2 -9 0 -19
-5 -23z m-275 -695 c-7 -8 -15 -12 -17 -11 -5 6 10 25 20 25 5 0 4 -6 -3 -14z
m-1418 -146 c0 -5 -5 -10 -11 -10 -5 0 -7 5 -4 10 3 6 8 10 11 10 2 0 4 -4 4
-10z m-190 -190 c0 -5 -5 -10 -11 -10 -5 0 -7 5 -4 10 3 6 8 10 11 10 2 0 4
-4 4 -10z m-530 -319 c-6 -12 -15 -21 -21 -21 -5 0 -2 11 8 24 21 28 29 27 13
-3z m-60 -45 c0 -2 -8 -10 -17 -17 -16 -13 -17 -12 -4 4 13 16 21 21 21 13z
m815 -68 c-20 -29 -38 -54 -40 -56 -1 -1 -5 7 -8 18 -4 16 5 32 35 61 23 22
43 38 45 35 3 -2 -12 -28 -32 -58z m-929 -35 c-11 -11 -19 6 -11 24 8 17 8 17
12 0 3 -10 2 -21 -1 -24z m957 -123 c-3 -11 -12 -20 -19 -20 -8 0 -19 -9 -26
-20 -16 -26 -28 -26 -21 0 5 20 48 60 63 60 5 0 6 -9 3 -20z m-667 -266 c-204
-312 -326 -644 -326 -885 0 -53 -4 -89 -10 -89 -15 0 -12 101 5 210 34 210
131 478 241 663 75 126 149 231 152 215 2 -9 -26 -60 -62 -114z m1543 -410
c-13 -16 -12 -17 9 -12 25 7 21 -7 -7 -21 -14 -8 -17 -6 -16 7 3 25 17 54 23
48 3 -3 -1 -13 -9 -22z m101 -259 c-7 -8 -18 -15 -24 -15 -6 0 -2 7 8 15 25
19 32 19 16 0z m-1095 -26 c-7 -21 -13 -47 -14 -62 -1 -5 -5 -6 -10 -2 -5 3
-12 1 -16 -5 -3 -5 0 -10 7 -10 9 -1 7 -5 -4 -14 -10 -7 -18 -18 -18 -23 0 -5
-11 -20 -25 -33 -35 -33 -31 -8 10 56 19 30 35 58 35 62 0 10 29 52 36 52 3 0
2 -10 -1 -21z m715 -8 c-10 -20 -30 -37 -30 -26 0 11 25 45 33 45 4 0 3 -9 -3
-19z m107 -48 c-15 -16 -17 -16 -17 -1 0 9 6 18 13 21 20 7 22 -2 4 -20z m273
-11 c0 -5 -7 -17 -16 -28 -8 -10 -14 -14 -11 -9 2 6 7 18 10 28 7 17 17 23 17
9z m-1030 -44 c0 -19 -2 -20 -10 -8 -8 12 -10 12 -10 1 0 -8 -3 -11 -6 -8 -6
6 13 37 22 37 2 0 4 -10 4 -22z m-1820 -189 c0 -5 -7 -9 -15 -9 -15 0 -20 12
-9 23 8 8 24 -1 24 -14z m30 -14 c0 -8 -2 -15 -4 -15 -2 0 -6 7 -10 15 -3 8
-1 15 4 15 6 0 10 -7 10 -15z m-88 -47 c-7 -7 -12 -8 -12 -2 0 14 12 26 19 19
2 -3 -1 -11 -7 -17z m8 -32 c0 -3 -4 -8 -10 -11 -5 -3 -10 -1 -10 4 0 6 5 11
10 11 6 0 10 -2 10 -4z m1993 -645 c-3 -11 -12 -22 -21 -26 -14 -5 -15 -4 -4
6 6 7 12 21 12 32 0 10 4 16 9 13 5 -3 7 -15 4 -25z m57 -11 c0 -5 -4 -10 -10
-10 -5 0 -10 5 -10 10 0 6 5 10 10 10 6 0 10 -4 10 -10z m-935 -9 c3 -5 1 -12
-5 -16 -5 -3 -10 1 -10 9 0 18 6 21 15 7z m624 0 c7 -5 9 -11 4 -14 -4 -3 -17
1 -28 9 -21 16 0 20 24 5z m151 -11 c0 -14 -16 -21 -34 -14 -24 9 -19 19 9 22
14 1 25 -2 25 -8z m-740 -20 c0 -5 -5 -10 -11 -10 -5 0 -7 5 -4 10 3 6 8 10
11 10 2 0 4 -4 4 -10z m925 -10 c3 -5 1 -10 -4 -10 -6 0 -11 5 -11 10 0 6 2
10 4 10 3 0 8 -4 11 -10z m-1558 -22 c-3 -8 -6 -5 -6 6 -1 11 2 17 5 13 3 -3
4 -12 1 -19z"/>
<path d="M5360 9341 c-28 -8 -38 -34 -39 -108 l-1 -53 28 11 c33 13 197 17
267 7 28 -4 44 -5 37 -2 -6 3 -10 10 -6 15 3 5 0 9 -6 9 -6 0 -8 5 -5 10 3 6
2 10 -3 10 -6 0 -12 -7 -16 -15 -3 -8 -10 -15 -16 -15 -6 0 -4 9 4 23 9 13 12
28 7 36 -6 9 -11 10 -15 2 -4 -6 -2 -11 5 -11 18 0 1 -13 -21 -17 -12 -2 -19
2 -17 10 1 7 -10 12 -29 12 -22 -1 -30 3 -27 12 6 16 23 17 23 1 0 -6 3 -9 6
-5 3 3 2 13 -3 22 -9 15 -11 15 -22 1 -17 -20 -32 -21 -25 -2 3 8 1 16 -3 19
-5 3 -10 -4 -10 -15 -1 -12 -7 -26 -13 -32 -8 -8 -10 -4 -5 17 8 29 -10 38
-33 15 -7 -7 -12 -9 -12 -5 0 3 9 15 20 25 20 18 19 18 -15 16 -21 -2 -33 1
-30 6 4 6 5 10 3 9 -2 -1 -14 -4 -28 -8z m20 -21 c0 -5 -5 -10 -11 -10 -5 0
-7 5 -4 10 3 6 8 10 11 10 2 0 4 -4 4 -10z"/>
<path d="M4734 9187 c-110 -42 -215 -136 -288 -256 -39 -64 -69 -154 -114
-344 -23 -98 -40 -145 -71 -197 -50 -84 -150 -177 -236 -219 -66 -33 -78 -45
-47 -49 58 -6 92 -16 92 -26 0 -6 9 -12 20 -13 11 -1 20 2 20 8 0 5 5 9 10 9
6 0 10 -6 10 -14 0 -20 19 -31 32 -18 8 8 17 8 30 1 14 -8 18 -6 18 8 0 16 1
16 13 -1 12 -17 15 -16 44 17 43 49 84 139 160 346 75 208 66 186 138 333 151
308 348 385 670 262 30 -12 -41 47 -108 90 -81 52 -158 77 -252 82 -67 4 -90
0 -141 -19z"/>
<path d="M5410 9175 c-8 -2 -32 -7 -54 -10 l-39 -6 6 -80 c3 -45 8 -83 11 -86
3 -4 25 0 48 8 67 22 183 18 241 -8 100 -46 208 -194 252 -346 18 -62 30 -77
38 -47 3 10 1 20 -4 22 -5 2 -6 14 -2 27 l6 24 17 -23 c15 -19 18 -20 29 -6 9
11 10 16 2 16 -6 0 -11 10 -11 22 0 17 -3 19 -12 10 -7 -7 -17 -8 -30 -1 -12
6 -18 6 -18 -1 0 -5 -4 -10 -10 -10 -17 0 -11 30 7 37 25 10 50 38 45 52 -3 8
-8 7 -19 -6 -8 -10 -12 -12 -8 -5 3 6 2 12 -4 12 -6 0 -13 11 -17 25 -3 14
-14 30 -23 35 -14 8 -13 9 6 10 31 0 38 19 15 40 -11 10 -22 25 -25 32 -3 10
-9 9 -25 -5 -12 -11 -22 -14 -26 -8 -4 5 1 14 10 19 10 6 13 12 6 16 -6 3 -13
2 -17 -4 -10 -16 -21 -11 -22 10 -1 17 2 20 18 15 11 -4 18 -3 17 2 -1 4 5 22
14 38 l16 31 -31 0 c-23 0 -32 4 -31 15 1 11 -7 15 -27 14 -29 -2 -38 8 -19
20 15 9 12 25 -4 25 -8 0 -13 8 -12 18 0 10 -5 16 -13 14 -8 -2 -17 2 -21 9
-4 6 -18 13 -31 15 -13 2 -44 8 -69 13 -42 10 -147 13 -180 6z m437 -300 c0
-8 -4 -12 -9 -9 -5 3 -6 10 -3 15 9 13 12 11 12 -6z m38 -123 c-3 -8 -5 -18
-5 -23 0 -5 -5 -9 -11 -9 -6 0 -9 9 -6 20 3 11 1 23 -4 26 -5 3 -9 9 -9 15 0
5 9 4 20 -3 11 -7 18 -19 15 -26z"/>
<path d="M4853 9042 c-153 -55 -247 -198 -398 -607 -73 -198 -101 -264 -140
-325 -21 -34 -23 -41 -8 -27 12 10 36 22 56 28 19 5 51 20 71 34 20 14 41 25
46 25 6 0 10 9 10 19 0 10 7 22 16 25 8 3 12 11 9 16 -4 6 7 25 24 42 17 17
36 47 42 67 6 20 16 41 21 48 5 7 7 16 4 21 -5 8 18 66 45 115 5 10 7 22 4 27
-4 6 3 24 15 40 12 17 18 30 13 29 -21 -4 -22 4 -3 38 11 21 20 49 20 62 0 31
21 93 36 106 7 6 15 24 19 40 15 67 133 140 233 144 51 2 62 0 62 -13 0 -12
10 -16 39 -16 22 0 43 -4 46 -10 3 -5 11 -10 17 -10 6 0 -1 11 -17 24 l-28 24
26 -1 c14 -1 23 -5 21 -9 -4 -5 16 -13 81 -32 6 -2 14 -4 19 -4 5 0 12 -6 17
-14 6 -10 11 -10 21 0 17 17 -8 34 -107 73 -104 41 -249 51 -332 21z m-203
-463 c-7 -11 -14 -18 -17 -15 -3 3 0 12 7 21 18 21 23 19 10 -6z m-30 -83 c0
-3 -4 -8 -10 -11 -5 -3 -10 -1 -10 4 0 6 5 11 10 11 6 0 10 -2 10 -4z"/>
<path d="M5435 8985 c-5 -2 -30 -9 -54 -15 -49 -13 -45 -25 11 -33 24 -4 38
-1 41 6 6 16 69 -17 117 -60 19 -18 38 -33 41 -33 3 0 12 -11 19 -25 7 -14 17
-25 22 -25 11 0 48 -38 48 -50 0 -5 7 -10 16 -10 8 0 12 -4 9 -10 -6 -9 8 -14
28 -11 4 0 7 -3 7 -8 0 -5 8 -17 17 -27 13 -13 14 -19 5 -22 -7 -2 -9 -8 -6
-14 3 -5 -2 -16 -12 -24 -11 -9 -13 -12 -6 -9 8 4 12 2 11 -6 -1 -8 1 -22 4
-31 4 -10 9 -25 12 -34 3 -8 9 -12 15 -9 6 4 8 11 4 16 -6 10 13 39 26 39 5 0
6 -8 3 -19 -3 -13 2 -20 18 -24 27 -7 39 0 20 12 -10 6 -10 10 -1 13 8 2 5 22
-11 68 -41 122 -35 113 -64 94 -16 -11 -25 -12 -25 -5 0 7 -4 10 -9 7 -5 -4
-4 5 2 19 7 14 18 25 25 25 10 0 9 8 -5 30 -9 17 -23 30 -30 30 -7 0 -10 6 -7
14 8 20 -92 103 -145 121 -40 14 -121 19 -146 10z m228 -104 c3 -14 1 -18 -9
-14 -15 6 -18 16 -7 26 9 10 10 9 16 -12z m41 -53 c-5 -8 0 -9 15 -5 22 5 22
5 6 -13 -10 -11 -22 -17 -26 -14 -13 7 -11 44 2 44 5 0 7 -5 3 -12z"/>
<path d="M5837 8983 c-12 -11 -7 -19 12 -19 11 0 17 5 14 13 -6 14 -16 17 -26
6z"/>
<path d="M5015 8970 c-3 -5 -2 -10 4 -10 5 0 13 5 16 10 3 6 2 10 -4 10 -5 0
-13 -4 -16 -10z"/>
<path d="M5900 8805 c-16 -19 -1 -19 24 0 16 12 17 15 4 15 -8 0 -21 -7 -28
-15z"/>
<path d="M5950 8770 c0 -5 5 -10 11 -10 5 0 7 5 4 10 -3 6 -8 10 -11 10 -2 0
-4 -4 -4 -10z"/>
<path d="M5720 8690 c-8 -5 -11 -12 -7 -16 4 -4 13 -2 19 4 15 15 7 24 -12 12z"/>
<path d="M5950 8570 c0 -5 5 -10 11 -10 5 0 7 5 4 10 -3 6 -8 10 -11 10 -2 0
-4 -4 -4 -10z"/>
<path d="M5908 8525 c2 -14 8 -25 13 -25 5 0 6 7 3 15 -4 8 -1 15 5 15 6 0 11
5 11 10 0 6 -8 10 -19 10 -14 0 -17 -6 -13 -25z"/>
<path d="M5807 8509 c-4 -15 1 -22 19 -29 25 -10 33 -30 12 -30 -6 0 -8 -3 -5
-7 8 -7 47 25 47 39 0 4 -6 8 -13 8 -7 0 -19 9 -27 20 -18 25 -26 25 -33 -1z"/>
<path d="M5770 8511 c0 -6 4 -13 10 -16 6 -3 7 1 4 9 -7 18 -14 21 -14 7z"/>
<path d="M5928 8453 c7 -3 16 -2 19 1 4 3 -2 6 -13 5 -11 0 -14 -3 -6 -6z"/>
<path d="M5852 8410 c-12 -12 -22 -26 -22 -32 0 -6 3 -8 7 -5 3 4 12 2 20 -4
9 -9 13 -8 14 0 3 26 4 30 12 37 9 10 9 24 -1 24 -5 0 -18 -9 -30 -20z"/>
<path d="M5930 8400 c0 -5 5 -10 10 -10 6 0 10 5 10 10 0 6 -4 10 -10 10 -5 0
-10 -4 -10 -10z"/>
<path d="M4876 8313 c-10 -10 -16 -12 -12 -5 13 23 -13 12 -30 -13 -18 -28
-10 -53 12 -34 24 20 80 22 98 4 18 -19 46 -14 46 8 0 41 -83 70 -114 40z"/>
<path d="M5860 8319 c0 -5 5 -7 10 -4 6 3 10 8 10 11 0 2 -4 4 -10 4 -5 0 -10
-5 -10 -11z"/>
<path d="M5950 8289 c0 -5 5 -7 10 -4 6 3 10 8 10 11 0 2 -4 4 -10 4 -5 0 -10
-5 -10 -11z"/>
<path d="M5865 8260 c-4 -6 3 -10 14 -10 25 0 27 6 6 13 -8 4 -17 2 -20 -3z"/>
<path d="M5549 8258 c-5 -19 -6 -38 -1 -39 4 0 20 -2 36 -3 15 -1 34 -10 41
-20 13 -17 14 -17 24 2 8 15 6 23 -9 37 -17 15 -22 16 -37 4 -15 -12 -16 -12
-10 4 7 18 -7 24 -18 7 -3 -5 -11 -10 -16 -10 -6 0 -7 5 -4 10 3 6 4 10 1 10
-3 0 -6 -1 -7 -2z"/>
<path d="M5870 8154 c0 -8 5 -12 10 -9 6 4 8 11 5 16 -9 14 -15 11 -15 -7z"/>
<path d="M4870 8085 c-9 -11 -16 -12 -25 -5 -10 8 -13 5 -14 -12 -1 -13 -4
-48 -7 -78 -5 -47 -2 -58 16 -77 25 -27 42 -29 79 -7 55 33 68 113 25 163 -28
34 -55 39 -74 16z m53 -79 c3 -8 3 -17 0 -20 -7 -7 -33 13 -33 25 0 15 27 10
33 -5z"/>
<path d="M5870 8055 c0 -8 4 -15 10 -15 5 0 7 7 4 15 -4 8 -8 15 -10 15 -2 0
-4 -7 -4 -15z"/>
<path d="M5505 8016 c-23 -23 -41 -93 -33 -131 1 -10 15 -27 30 -38 27 -20 28
-20 62 -2 19 10 40 28 46 39 10 20 21 140 12 131 -3 -2 -17 2 -33 10 -39 21
-56 19 -84 -9z m87 -88 c-6 -6 -15 -9 -18 -5 -4 3 -4 14 0 23 5 13 9 15 18 6
9 -9 9 -15 0 -24z"/>
<path d="M2905 7900 c-3 -5 -1 -10 4 -10 6 0 11 5 11 10 0 6 -2 10 -4 10 -3 0
-8 -4 -11 -10z"/>
<path d="M5906 7833 c-11 -11 -6 -23 9 -23 8 0 15 4 15 9 0 13 -16 22 -24 14z"/>
<path d="M2825 7790 c3 -5 8 -10 11 -10 2 0 4 5 4 10 0 6 -5 10 -11 10 -5 0
-7 -4 -4 -10z"/>
<path d="M5925 7790 c-8 -13 15 -24 27 -12 6 6 4 11 -6 15 -8 3 -18 2 -21 -3z"/>
<path d="M5793 7751 c-20 -19 -22 -19 -26 -3 -3 12 -5 10 -6 -6 -1 -24 -18
-70 -47 -126 -12 -24 -12 -31 -2 -37 9 -6 14 -3 16 9 5 26 24 62 34 62 5 0 6
-12 3 -27 l-6 -28 15 25 c8 14 11 27 7 30 -13 10 -6 39 17 65 31 35 27 65 -5
36z"/>
<path d="M5880 7726 c0 -7 9 -16 20 -19 23 -6 26 3 8 21 -16 16 -28 15 -28 -2z"/>
<path d="M5816 7662 c-2 -4 -1 -14 5 -22 7 -12 9 -10 9 8 0 23 -5 28 -14 14z"/>
<path d="M5860 7630 c0 -9 39 -25 46 -18 2 3 -7 10 -21 16 -14 6 -25 7 -25 2z"/>
<path d="M5810 7572 c0 -7 -11 -12 -25 -12 -24 0 -29 -9 -28 -47 1 -20 -44 15
-52 40 -6 20 -8 19 -17 -13 -5 -19 -16 -39 -24 -43 -8 -4 -14 -18 -14 -31 0
-13 -18 -44 -41 -69 -23 -27 -37 -52 -33 -58 4 -8 3 -9 -4 -5 -10 6 -15 -13
-11 -40 2 -12 -55 -63 -64 -57 -6 3 -7 1 -3 -5 4 -6 -11 -29 -34 -52 -25 -25
-40 -49 -40 -64 0 -13 11 -82 25 -153 29 -143 78 -295 136 -422 22 -46 38 -86
36 -88 -7 -6 -97 195 -126 282 -31 92 -81 322 -81 368 0 19 -4 25 -15 21 -8
-4 -15 -12 -15 -19 0 -8 -8 -16 -17 -19 -10 -3 -35 -22 -56 -41 -21 -19 -43
-35 -50 -35 -7 0 -22 -8 -35 -18 l-23 -18 21 -68 c51 -165 189 -423 245 -458
33 -20 164 -62 172 -55 2 3 0 14 -6 26 -7 13 -8 22 -1 26 5 3 8 22 5 41 -2 18
0 34 5 34 6 0 10 -8 10 -17 0 -10 8 -27 16 -38 15 -20 15 -20 33 2 10 12 21
19 25 16 11 -11 6 -41 -10 -57 -20 -21 -14 -58 11 -71 11 -5 36 -20 55 -32 19
-12 58 -29 85 -38 28 -9 59 -26 71 -36 11 -10 28 -19 37 -19 9 0 17 -4 17 -10
0 -5 7 -10 15 -10 17 0 52 -18 73 -37 7 -7 16 -13 18 -13 7 0 1 9 -72 115 -99
145 -157 273 -196 435 -19 75 -21 122 -24 397 -1 172 -5 317 -9 323 -3 5 -15
10 -27 10 -18 0 -19 2 -7 16 8 10 15 12 17 5 2 -6 11 -11 19 -11 11 0 14 7 9
23 -3 13 -1 40 5 61 6 21 8 40 5 44 -3 3 -6 0 -6 -6z m-26 -217 c-7 -17 -20
-20 -28 -6 -7 10 3 21 20 21 8 0 11 -6 8 -15z"/>
<path d="M5905 7551 c-3 -5 -1 -12 5 -16 5 -3 10 1 10 9 0 18 -6 21 -15 7z"/>
<path d="M5850 7518 c0 -8 7 -21 15 -28 8 -7 15 -9 15 -5 0 4 6 2 13 -4 8 -6
17 -8 20 -4 4 3 7 1 7 -5 0 -6 -9 -17 -20 -25 -14 -10 -18 -20 -13 -32 5 -14
3 -17 -10 -12 -24 9 -38 -16 -44 -79 -6 -56 -6 -57 13 -38 11 10 16 21 12 22
-14 6 -9 22 6 22 8 0 18 5 22 12 4 6 3 8 -4 4 -6 -3 -14 -1 -18 5 -8 13 36 50
49 42 5 -3 6 8 2 25 -3 18 -2 33 4 37 17 10 13 45 -4 45 -8 0 -15 5 -15 11 0
6 -6 9 -14 6 -7 -3 -19 0 -25 6 -8 8 -11 7 -11 -5z"/>
<path d="M5840 7450 c0 -5 5 -10 10 -10 6 0 10 5 10 10 0 6 -4 10 -10 10 -5 0
-10 -4 -10 -10z"/>
<path d="M5515 7270 c-3 -5 -1 -10 4 -10 6 0 11 5 11 10 0 6 -2 10 -4 10 -3 0
-8 -4 -11 -10z"/>
<path d="M5842 7261 c-14 -8 -15 -338 -2 -445 15 -124 53 -246 115 -371 62
-125 152 -251 178 -249 10 1 17 -5 17 -15 0 -9 11 -29 24 -46 l23 -29 26 29
26 30 1 -30 c0 -17 -5 -36 -12 -43 -9 -9 -3 -21 27 -53 72 -74 388 -321 412
-322 4 0 14 -7 21 -16 12 -14 13 -13 9 6 -3 13 1 24 10 27 27 11 33 6 27 -19
-5 -21 -3 -25 15 -25 18 0 20 4 14 33 -3 17 -9 36 -14 41 -4 5 -3 19 1 32 6
14 6 24 1 24 -5 0 -11 -6 -14 -12 -3 -9 -13 -5 -32 13 l-27 26 27 -3 c40 -4
55 5 55 33 0 14 7 31 15 37 12 10 12 13 0 30 -8 11 -15 14 -15 8 0 -7 -6 -12
-14 -12 -7 0 -19 -7 -26 -15 -20 -24 -37 -17 -44 17 -8 40 17 66 42 45 12 -9
16 -9 19 1 3 6 9 10 14 6 5 -3 9 0 9 5 0 6 -11 11 -24 11 -13 0 -26 5 -28 12
-4 10 -21 14 -73 17 -11 1 -31 11 -44 22 -20 16 -22 22 -11 29 16 10 33 3 25
-10 -7 -11 38 -21 48 -11 5 5 1 8 -9 8 -15 -2 -18 4 -16 28 1 17 -2 36 -7 44
-7 11 -14 9 -35 -15 -14 -16 -26 -23 -26 -16 0 6 4 12 9 12 5 0 12 14 16 30 6
26 9 29 21 19 20 -17 30 -3 11 16 -9 8 -31 15 -49 15 -30 1 -31 2 -15 14 20
16 23 38 3 30 -9 -3 -15 5 -20 27 -5 27 -8 30 -21 19 -13 -11 -15 -8 -15 14 0
14 -4 26 -9 26 -5 0 -12 8 -14 18 -4 16 -5 16 -6 0 -1 -21 -12 -23 -29 -6 -9
9 -12 4 -12 -24 0 -20 -5 -40 -11 -43 -7 -5 -8 5 -3 30 5 27 3 36 -4 31 -6 -4
-8 -14 -5 -23 4 -11 2 -14 -8 -11 -8 3 -14 17 -14 31 1 15 -3 27 -7 27 -4 0
-8 5 -8 12 0 6 9 3 20 -7 17 -16 20 -16 20 -2 0 9 -4 18 -10 22 -5 3 -7 12 -3
20 3 8 0 15 -6 15 -16 0 -61 42 -55 51 2 4 -4 13 -15 18 -26 14 -31 14 -31 -3
0 -8 -9 -14 -19 -13 -15 1 -17 4 -9 14 12 15 4 43 -13 43 -6 0 -9 -7 -5 -15 3
-8 1 -15 -4 -15 -6 0 -10 9 -10 21 0 15 -4 19 -16 15 -9 -3 -20 -6 -25 -6 -4
0 -6 -7 -3 -15 4 -8 1 -15 -5 -15 -14 0 -14 27 0 35 6 4 8 13 5 21 -3 8 0 14
6 14 6 0 1 9 -11 19 -13 11 -31 17 -44 14 -19 -4 -20 -3 -5 7 14 9 15 15 6 35
-6 14 -16 25 -22 24 -30 -4 -46 3 -56 22 -9 17 -8 23 7 34 20 15 16 23 -14 28
-27 4 -56 34 -47 48 4 8 3 9 -4 5 -8 -5 -12 0 -12 13 0 12 -5 21 -11 21 -5 0
-7 -4 -4 -10 3 -5 2 -10 -4 -10 -9 0 -22 27 -27 58 -1 7 -12 34 -24 60 -12 25
-22 61 -22 78 0 19 -6 35 -14 38 -8 3 -14 10 -14 16 0 6 5 8 10 5 7 -4 9 7 6
32 -2 21 -5 45 -5 53 -1 12 -3 12 -10 2 -6 -10 -10 -9 -14 7 -3 12 -1 21 5 21
5 0 7 4 3 9 -3 5 -1 12 5 16 5 3 10 12 10 19 0 15 -33 27 -48 17z m25 -38 c-9
-9 -20 -13 -24 -9 -4 4 -1 11 7 16 25 16 35 11 17 -7z m10 -79 c-3 -3 -12 -4
-19 -1 -8 3 -5 6 6 6 11 1 17 -2 13 -5z m149 -441 c-7 -7 -26 7 -26 19 0 6 6
6 15 -2 9 -7 13 -15 11 -17z m34 -38 c7 -9 8 -15 2 -15 -5 0 -12 7 -16 15 -3
8 -4 15 -2 15 2 0 9 -7 16 -15z m-10 -35 c0 -5 -2 -10 -4 -10 -3 0 -8 5 -11
10 -3 6 -1 10 4 10 6 0 11 -4 11 -10z m260 -170 c0 -5 -5 -10 -11 -10 -5 0 -7
5 -4 10 3 6 8 10 11 10 2 0 4 -4 4 -10z m40 -40 c0 -5 -4 -10 -10 -10 -5 0
-10 5 -10 10 0 6 5 10 10 10 6 0 10 -4 10 -10z m30 -10 c0 -5 -4 -10 -10 -10
-5 0 -10 5 -10 10 0 6 5 10 10 10 6 0 10 -4 10 -10z m-90 -36 c0 -8 -5 -12
-10 -9 -6 4 -8 11 -5 16 9 14 15 11 15 -7z m204 -78 c-3 -9 -13 -16 -22 -16
-13 0 -12 3 3 20 20 23 29 21 19 -4z m36 -25 c0 -12 -20 -25 -27 -18 -7 7 6
27 18 27 5 0 9 -4 9 -9z m-30 -52 c0 -6 -4 -7 -10 -4 -5 3 -10 11 -10 16 0 6
5 7 10 4 6 -3 10 -11 10 -16z m50 -139 c0 -5 -7 -10 -15 -10 -8 0 -15 5 -15
10 0 6 7 10 15 10 8 0 15 -4 15 -10z m33 -56 c-9 -23 -23 -16 -23 12 0 22 2
24 14 14 8 -6 12 -18 9 -26z m81 -77 c17 -28 17 -28 -3 -17 -12 6 -21 20 -21
32 0 12 1 19 3 17 2 -2 11 -17 21 -32z m76 -72 c-6 -7 -20 -11 -30 -8 -25 7
-25 12 -3 29 23 16 49 -1 33 -21z"/>
<path d="M5144 6948 c-15 -13 -33 -23 -39 -23 -10 -1 -22 -6 -74 -26 -27 -11
-26 -26 15 -167 52 -177 87 -242 136 -251 5 -1 33 -11 63 -22 46 -17 59 -18
71 -8 16 13 54 20 54 10 0 -4 11 -8 25 -9 33 -2 32 7 -10 72 -57 89 -130 244
-166 349 -18 53 -36 97 -39 97 -4 0 -20 -10 -36 -22z"/>
<path d="M4954 6879 c-2 -4 -6 -45 -9 -92 -4 -72 -2 -86 11 -91 11 -4 15 -14
12 -31 -3 -13 -2 -22 3 -19 4 2 8 -4 8 -13 1 -39 5 -53 13 -53 4 0 8 -7 8 -16
0 -8 5 -12 10 -9 6 3 10 -1 10 -9 0 -9 5 -16 10 -16 6 0 29 -9 51 -20 25 -11
39 -14 36 -7 -57 138 -74 189 -96 279 -22 88 -29 106 -44 105 -10 -1 -20 -4
-23 -8z"/>
<path d="M6082 6711 c2 -7 7 -12 11 -12 12 1 9 15 -3 20 -7 2 -11 -2 -8 -8z"/>
<path d="M6648 6164 c-7 -11 7 -50 21 -59 6 -3 11 0 11 7 -1 20 -27 62 -32 52z"/>
<path d="M1980 6082 c-19 -19 -20 -22 -5 -14 37 21 47 29 39 34 -5 2 -20 -7
-34 -20z"/>
<path d="M6297 5950 c3 -11 9 -17 14 -14 5 3 9 -1 9 -9 0 -8 7 -17 15 -21 8
-3 15 -1 15 4 0 6 -5 10 -12 10 -6 0 -8 3 -5 6 4 4 -3 15 -15 25 -26 24 -27
24 -21 -1z"/>
<path d="M6366 5883 c-12 -13 -5 -22 13 -18 23 4 37 -23 20 -39 -9 -8 -10 -6
-5 9 6 15 4 17 -5 8 -7 -7 -9 -19 -4 -30 5 -12 9 -14 12 -5 3 6 9 12 15 12 6
0 7 -7 4 -16 -4 -11 -2 -15 8 -11 11 4 13 1 9 -10 -4 -11 -2 -14 5 -9 7 4 14
-3 18 -19 3 -13 10 -22 15 -19 5 3 6 -2 3 -10 -5 -12 2 -16 27 -17 32 -2 32
-2 6 -6 -21 -3 -27 -9 -23 -20 4 -9 1 -23 -6 -32 -10 -13 -10 -14 2 -3 8 6 18
12 22 12 13 0 9 -48 -4 -54 -7 -3 -4 -4 7 -3 14 1 20 -4 19 -15 -1 -10 2 -18
7 -18 5 0 9 -13 9 -30 0 -16 4 -30 9 -30 5 0 15 -22 22 -50 7 -29 18 -50 26
-50 10 0 11 -5 3 -19 -7 -13 -7 -22 0 -26 5 -3 10 -15 10 -25 0 -10 4 -20 8
-22 5 -1 21 -34 35 -73 14 -38 32 -83 38 -100 7 -16 13 -32 14 -35 0 -3 11
-27 23 -54 12 -27 22 -50 22 -51 0 -2 9 -24 20 -49 l19 -46 26 26 c14 14 22
30 19 36 -4 6 -2 8 4 4 16 -10 26 13 12 29 -6 8 -9 18 -6 24 4 5 -3 13 -15 16
-20 7 -20 7 -2 27 18 20 18 21 -7 13 -22 -7 -23 -6 -11 9 9 11 10 16 2 16 -7
0 -9 4 -6 10 3 5 1 19 -5 30 -12 23 3 90 21 90 5 0 9 9 9 21 0 13 -4 18 -12
13 -7 -3 0 6 16 22 18 17 25 29 17 32 -9 3 -9 7 0 18 9 11 9 17 0 28 -9 11 -9
16 0 22 8 5 9 3 4 -6 -5 -8 -4 -11 2 -7 6 4 8 19 5 33 -4 22 -2 26 12 21 10
-4 16 -1 16 8 0 9 -10 15 -24 15 -13 0 -27 7 -30 16 -4 12 -1 14 14 9 45 -14
13 34 -68 100 -61 51 -68 54 -79 38 -13 -17 -16 -12 -15 27 1 13 -131 119
-150 120 -4 0 -18 10 -31 23 -69 64 -128 102 -141 90z m229 -183 c3 -5 -1 -10
-10 -10 -9 0 -13 5 -10 10 3 6 8 10 10 10 2 0 7 -4 10 -10z m20 -110 c3 -5 1
-10 -4 -10 -6 0 -11 5 -11 10 0 6 2 10 4 10 3 0 8 -4 11 -10z m95 -61 c0 -6
-9 -8 -22 -3 -29 8 -31 10 -23 23 7 13 45 -4 45 -20z m-70 -91 c22 -24 26 -38
10 -38 -5 0 -10 7 -10 15 0 8 -4 15 -9 15 -5 0 -11 7 -15 15 -8 21 0 19 24 -7z"/>
<path d="M6790 5880 c0 -5 5 -10 11 -10 5 0 7 5 4 10 -3 6 -8 10 -11 10 -2 0
-4 -4 -4 -10z"/>
<path d="M6786 5798 c-17 -20 -21 -38 -8 -38 9 0 34 25 45 46 10 18 -20 12
-37 -8z"/>
<path d="M6802 5757 c-6 -7 -7 -18 -3 -26 7 -10 10 -8 16 8 8 27 2 36 -13 18z"/>
<path d="M6426 5734 c-4 -9 -4 -19 -1 -22 2 -3 7 3 11 12 4 9 4 19 1 22 -2 3
-7 -3 -11 -12z"/>
<path d="M6780 5680 c0 -5 -10 -10 -22 -10 -20 0 -21 -2 -7 -15 12 -13 21 -13
50 -4 39 13 68 35 32 24 -14 -4 -23 -2 -23 4 0 6 -7 11 -15 11 -8 0 -15 -4
-15 -10z"/>
<path d="M6810 5635 c0 -9 5 -15 11 -13 6 2 11 8 11 13 0 5 -5 11 -11 13 -6 2
-11 -4 -11 -13z"/>
<path d="M6880 5607 c0 -8 -7 -22 -15 -30 -12 -13 -12 -16 0 -20 9 -4 16 4 20
24 4 17 4 33 1 36 -3 4 -6 -1 -6 -10z"/>
<path d="M6835 5600 c-3 -5 1 -10 9 -10 8 0 18 5 21 10 3 6 -1 10 -9 10 -8 0
-18 -4 -21 -10z"/>
<path d="M6838 4894 c-29 -37 -12 -103 36 -139 14 -10 23 -22 20 -27 -3 -4 -1
-8 5 -8 18 0 7 40 -13 46 -18 6 -18 7 5 25 l24 18 -37 -4 c-34 -3 -38 -1 -38
20 0 13 7 26 16 29 9 4 14 9 11 13 -4 3 -3 11 2 17 5 7 4 15 -3 22 -9 8 -16 5
-28 -12z"/>
<path d="M3162 4267 c-223 -232 -431 -548 -537 -815 -42 -107 -40 -132 8 -126
56 7 101 3 109 -9 6 -9 11 -7 19 6 6 9 15 15 20 12 5 -4 7 -11 3 -16 -3 -6 2
-19 12 -30 9 -10 14 -20 11 -20 -4 -1 -11 -2 -17 -3 -5 0 -10 -4 -10 -8 0 -5
0 -13 0 -18 0 -7 6 -7 20 0 12 6 20 21 20 36 0 21 3 23 20 14 11 -6 17 -16 14
-25 -4 -9 3 -16 20 -21 15 -3 25 -12 24 -18 -2 -6 2 -13 7 -15 6 -1 16 -7 22
-13 7 -6 21 -7 30 -3 16 6 15 8 -7 18 -14 5 -28 9 -32 9 -5 -1 -8 5 -8 14 0
10 6 14 14 11 7 -3 19 0 25 6 18 18 52 -20 46 -52 -5 -25 -5 -25 5 -3 7 16 17
22 32 20 19 -2 22 -8 20 -31 -2 -19 1 -26 8 -22 6 3 8 10 5 15 -3 5 -1 11 4
14 5 3 7 25 4 47 -5 33 -3 41 8 37 7 -2 16 -15 20 -29 4 -13 8 -19 8 -14 1 6
6 3 11 -5 8 -13 11 -12 23 4 15 21 39 14 31 -8 -3 -8 1 -17 8 -22 7 -4 10 -4
6 1 -4 4 -3 14 2 20 7 9 6 16 -5 25 -15 12 -21 40 -9 40 3 0 17 -9 31 -20 15
-11 29 -18 32 -15 3 4 -1 10 -8 14 -14 9 -7 51 9 51 5 0 7 -7 4 -15 -9 -23 5
-18 38 15 16 17 34 30 39 30 13 0 0 -42 -15 -52 -15 -11 14 -9 39 2 l20 9 -20
1 c-19 1 -19 2 1 10 12 5 25 14 30 21 5 9 2 10 -9 6 -16 -6 -15 -4 0 20 16 25
26 93 13 93 -3 0 -5 51 -5 113 0 61 -6 139 -13 172 -7 33 -13 72 -13 88 0 15
-3 27 -6 27 -2 0 -24 -14 -48 -31 -23 -17 -61 -33 -84 -36 -22 -3 -41 -10 -41
-15 0 -5 -5 -6 -11 -3 -15 10 18 43 71 71 25 13 56 32 69 42 l24 19 -46 7
c-28 4 -48 13 -52 24 -3 9 -3 13 1 9 4 -4 12 -2 19 3 7 6 23 6 43 0 27 -7 32
-6 32 9 0 9 -4 21 -9 26 -5 6 -12 28 -15 49 -4 22 -15 73 -25 115 -11 42 -23
97 -26 124 -4 26 -11 49 -15 52 -4 3 -35 -23 -68 -58z m22 -22 c-4 -8 -8 -15
-10 -15 -2 0 -4 7 -4 15 0 8 4 15 10 15 5 0 7 -7 4 -15z m159 -836 c29 -16 28
-14 21 -33 -3 -9 -11 -16 -16 -16 -6 0 -8 7 -4 15 3 10 -3 17 -19 21 -14 3
-25 10 -25 15 0 12 17 11 43 -2z m-43 -39 c0 -5 -4 -10 -9 -10 -6 0 -13 5 -16
10 -3 6 1 10 9 10 9 0 16 -4 16 -10z m-164 -27 c-10 -10 -19 5 -10 18 6 11 8
11 12 0 2 -7 1 -15 -2 -18z m14 -42 c0 -11 -31 -24 -39 -16 -3 3 1 10 9 15 19
12 30 12 30 1z m-150 -16 c7 -9 11 -17 8 -20 -2 -2 -12 4 -21 15 -9 11 -13 20
-8 20 5 0 14 -7 21 -15z"/>
<path d="M6473 3779 c-12 -4 -51 -7 -88 -5 -36 1 -68 -1 -71 -3 -3 -3 -17 -7
-32 -8 -78 -6 -101 -9 -107 -15 -4 -4 -13 -4 -21 -1 -8 3 -14 0 -14 -6 0 -6
-7 -11 -15 -11 -9 0 -15 -9 -15 -22 0 -19 2 -20 10 -8 9 13 11 13 20 0 5 -8
24 -15 43 -16 18 0 39 -4 45 -8 7 -4 12 -4 12 0 0 4 8 0 18 -9 11 -10 23 -13
31 -8 8 5 23 3 36 -3 13 -7 53 -12 89 -11 36 1 66 -2 66 -6 0 -5 6 -6 14 -3 8
3 19 -3 26 -15 6 -12 19 -21 30 -21 25 0 51 -10 46 -19 -2 -3 15 -7 39 -8 41
-3 42 -2 58 38 15 37 15 41 -1 46 -9 3 -31 19 -48 35 -27 25 -32 27 -38 13
-10 -26 -29 -5 -23 25 4 17 1 27 -6 28 -29 2 -72 14 -77 21 -3 5 -15 5 -27 0z
m-183 -97 c0 -13 -12 -22 -22 -16 -10 6 -1 24 13 24 5 0 9 -4 9 -8z"/>
<path d="M6074 3725 c-9 -14 -14 -28 -11 -32 9 -8 37 17 37 32 0 8 6 16 13 18
7 3 5 6 -5 6 -10 1 -25 -10 -34 -24z"/>
<path d="M6040 3715 c0 -8 2 -15 4 -15 2 0 6 7 10 15 3 8 1 15 -4 15 -6 0 -10
-7 -10 -15z"/>
<path d="M1800 3370 c-10 -6 -11 -10 -2 -10 6 0 12 -7 12 -15 0 -19 26 -20 33
-1 3 7 0 19 -6 25 -13 13 -18 13 -37 1z"/>
<path d="M1266 3288 c3 -5 10 -6 15 -3 13 9 11 12 -6 12 -8 0 -12 -4 -9 -9z"/>
<path d="M3260 3280 c-13 -8 -12 -10 3 -10 9 0 17 5 17 10 0 12 -1 12 -20 0z"/>
<path d="M3255 3250 c-3 -5 -2 -10 4 -10 5 0 13 5 16 10 3 6 2 10 -4 10 -5 0
-13 -4 -16 -10z"/>
<path d="M3210 3226 c0 -2 7 -7 16 -10 8 -3 12 -2 9 4 -6 10 -25 14 -25 6z"/>
<path d="M775 3209 c-12 -19 5 -23 22 -6 16 16 16 17 1 17 -9 0 -20 -5 -23
-11z"/>
<path d="M586 3171 c-4 -5 -2 -12 3 -15 5 -4 12 -2 15 3 4 5 2 12 -3 15 -5 4
-12 2 -15 -3z"/>
<path d="M2958 3163 c7 -3 16 -2 19 1 4 3 -2 6 -13 5 -11 0 -14 -3 -6 -6z"/>
<path d="M736 3152 c-2 -4 4 -9 15 -9 11 -1 17 2 14 8 -7 11 -22 12 -29 1z"/>
<path d="M2900 3139 c0 -5 5 -7 10 -4 6 3 10 8 10 11 0 2 -4 4 -10 4 -5 0 -10
-5 -10 -11z"/>
<path d="M3005 3140 c3 -5 8 -10 11 -10 2 0 4 5 4 10 0 6 -5 10 -11 10 -5 0
-7 -4 -4 -10z"/>
<path d="M607 3119 c4 -13 8 -18 11 -10 2 7 -1 18 -6 23 -8 8 -9 4 -5 -13z"/>
<path d="M655 3110 c-3 -5 -1 -10 4 -10 6 0 11 5 11 10 0 6 -2 10 -4 10 -3 0
-8 -4 -11 -10z"/>
<path d="M6407 2934 c-10 -13 -16 -28 -13 -32 3 -5 -3 -10 -12 -11 -42 -7
-278 -7 -315 -1 -23 5 -70 10 -105 14 -34 3 -68 8 -74 12 -6 4 -86 8 -178 8
-161 2 -166 1 -165 -19 1 -11 9 -21 18 -23 9 -2 17 -8 17 -13 0 -5 5 -9 10 -9
6 0 26 -16 45 -36 19 -20 35 -33 35 -29 0 4 20 -14 45 -39 56 -56 150 -136
159 -136 4 0 19 -11 34 -25 15 -14 32 -25 39 -25 7 0 13 -4 13 -10 0 -5 6 -10
14 -10 8 0 21 -7 30 -15 8 -8 27 -19 41 -25 15 -6 29 -19 32 -29 3 -12 11 -17
22 -14 10 2 25 -3 34 -11 25 -25 67 -38 83 -25 11 9 182 430 188 462 1 7 8 23
15 35 17 32 10 36 -12 6z"/>
<path d="M6360 2909 c0 -5 5 -7 10 -4 6 3 10 8 10 11 0 2 -4 4 -10 4 -5 0 -10
-5 -10 -11z"/>
</g>
</svg>
