<?xml version="1.0" encoding="UTF-8"?>
<svg xmlns="http://www.w3.org/2000/svg" xmlns:xlink="http://www.w3.org/1999/xlink" width="500px" height="425px" viewBox="0 0 499 425" version="1.1">
<g id="surface1">
<path style=" stroke:none;fill-rule:nonzero;fill:rgb(94.901961%,94.901961%,94.901961%);fill-opacity:1;" d="M 314.59375 57.929688 C 309.878906 67.707031 301.207031 74.988281 292.125 80.914062 C 282.488281 87.179688 272.128906 92.25 261.273438 96.015625 C 259.777344 96.539062 258.269531 97.039062 256.761719 97.511719 L 192.160156 97.511719 C 191.742188 97.03125 191.335938 96.53125 190.949219 96.015625 C 186.894531 90.640625 184.71875 83.839844 185.535156 77.171875 C 186.601562 68.433594 193.226562 60.398438 201.824219 58.535156 C 210.425781 56.679688 220.222656 61.820312 222.832031 70.230469 C 224.273438 54.015625 225.933594 37.121094 234.539062 23.308594 C 242.328125 10.804688 255.835938 1.855469 270.460938 0.253906 C 279.0625 -0.644531 287.742188 0.949219 295.472656 4.839844 C 296.179688 5.199219 296.882812 5.574219 297.570312 5.964844 C 302.207031 8.597656 306.300781 12.09375 309.625 16.265625 C 318.746094 27.835938 320.980469 44.648438 314.59375 57.929688 Z M 314.59375 57.929688 "/>
<path style=" stroke:none;fill-rule:nonzero;fill:rgb(100%,100%,100%);fill-opacity:1;" d="M 297.570312 5.964844 C 297.605469 6.363281 297.429688 6.753906 297.105469 6.988281 C 267.847656 30.851562 244.707031 61.375 229.613281 96.015625 C 229.390625 96.507812 229.175781 97.007812 228.964844 97.511719 L 225.992188 97.511719 C 226.199219 97.007812 226.410156 96.507812 226.625 96.015625 C 229.457031 89.398438 232.585938 82.921875 236.015625 76.574219 C 243.4375 62.875 252.167969 49.929688 262.085938 37.921875 C 272.003906 25.898438 283.082031 14.882812 295.15625 5.035156 C 295.253906 4.957031 295.359375 4.890625 295.472656 4.839844 C 295.894531 4.65625 296.382812 4.679688 296.789062 4.894531 C 297.199219 5.113281 297.484375 5.507812 297.570312 5.964844 Z M 297.570312 5.964844 "/>
<path style=" stroke:none;fill-rule:nonzero;fill:rgb(24.705882%,23.921569%,33.72549%);fill-opacity:1;" d="M 298.800781 96.015625 L 14.191406 96.015625 C 11.742188 96.011719 9.332031 96.648438 7.199219 97.863281 C 6.691406 98.152344 6.199219 98.476562 5.730469 98.828125 C 2.125 101.503906 0 105.734375 0 110.230469 L 0 258.382812 C 0.0078125 266.230469 6.355469 272.589844 14.191406 272.597656 L 298.800781 272.597656 C 306.636719 272.589844 312.988281 266.230469 312.996094 258.382812 L 312.996094 110.230469 C 312.988281 102.382812 306.636719 96.019531 298.800781 96.015625 Z M 311.5 258.382812 C 311.492188 265.402344 305.8125 271.09375 298.800781 271.101562 L 14.191406 271.101562 C 7.183594 271.09375 1.503906 265.402344 1.492188 258.382812 L 1.492188 110.230469 C 1.515625 104.71875 5.0625 99.839844 10.292969 98.125 C 10.398438 98.09375 10.496094 98.058594 10.601562 98.027344 C 11.765625 97.683594 12.976562 97.507812 14.191406 97.511719 L 298.800781 97.511719 C 305.8125 97.519531 311.492188 103.210938 311.5 110.230469 Z M 311.5 258.382812 "/>
<path style=" stroke:none;fill-rule:nonzero;fill:rgb(100%,72.156863%,72.156863%);fill-opacity:1;" d="M 401.304688 289.261719 C 403.296875 287.964844 404.609375 285.851562 404.890625 283.488281 C 405.175781 281.125 404.398438 278.761719 402.773438 277.027344 L 407.234375 223.742188 L 394.457031 225.152344 L 390.957031 277.011719 C 388.167969 280.003906 388.054688 284.617188 390.695312 287.742188 C 393.335938 290.867188 397.894531 291.523438 401.304688 289.261719 Z M 401.304688 289.261719 "/>
<path style=" stroke:none;fill-rule:nonzero;fill:rgb(100%,72.156863%,72.156863%);fill-opacity:1;" d="M 355.828125 416.351562 L 346.667969 416.351562 L 342.3125 380.96875 L 355.828125 380.96875 Z M 355.828125 416.351562 "/>
<path style=" stroke:none;fill-rule:nonzero;fill:rgb(18.431373%,18.039216%,25.490196%);fill-opacity:1;" d="M 340.125 413.730469 L 357.789062 413.730469 L 357.789062 424.871094 L 329.007812 424.871094 C 329.007812 418.71875 333.984375 413.730469 340.125 413.730469 Z M 340.125 413.730469 "/>
<path style=" stroke:none;fill-rule:nonzero;fill:rgb(100%,72.156863%,72.156863%);fill-opacity:1;" d="M 420.816406 416.351562 L 411.65625 416.351562 L 407.300781 380.96875 L 420.816406 380.96875 Z M 420.816406 416.351562 "/>
<path style=" stroke:none;fill-rule:nonzero;fill:rgb(18.431373%,18.039216%,25.490196%);fill-opacity:1;" d="M 405.117188 413.730469 L 422.777344 413.730469 L 422.777344 424.871094 L 393.996094 424.871094 C 393.996094 418.71875 398.976562 413.730469 405.117188 413.730469 Z M 405.117188 413.730469 "/>
<path style=" stroke:none;fill-rule:nonzero;fill:rgb(18.431373%,18.039216%,25.490196%);fill-opacity:1;" d="M 355.980469 394.4375 C 355.882812 394.4375 355.78125 394.433594 355.683594 394.425781 L 342.71875 393.386719 C 341.679688 393.304688 340.722656 392.789062 340.078125 391.96875 C 339.433594 391.144531 339.164062 390.089844 339.332031 389.058594 L 358.984375 267.308594 L 360.300781 250.132812 C 360.417969 248.484375 361.609375 247.113281 363.222656 246.765625 L 382.992188 242.433594 C 384.476562 242.101562 386.015625 242.714844 386.871094 243.976562 L 391.691406 251.035156 C 393.585938 253.777344 395.640625 256.402344 397.851562 258.894531 C 401.269531 262.796875 407.085938 271.460938 407.605469 285.636719 C 407.746094 290.292969 408.230469 294.933594 409.050781 299.519531 L 424.964844 385.386719 C 425.128906 386.402344 424.863281 387.445312 424.238281 388.261719 C 423.609375 389.078125 422.671875 389.597656 421.648438 389.699219 L 409.363281 390.632812 C 407.546875 390.8125 405.867188 389.644531 405.402344 387.878906 L 383.605469 306.695312 C 383.519531 306.367188 383.222656 306.140625 382.882812 306.140625 C 382.546875 306.140625 382.25 306.367188 382.164062 306.695312 L 359.589844 391.660156 C 359.152344 393.296875 357.671875 394.4375 355.980469 394.4375 Z M 355.980469 394.4375 "/>
<path style=" stroke:none;fill-rule:nonzero;fill:rgb(100%,72.156863%,72.156863%);fill-opacity:1;" d="M 408.796875 168.878906 C 408.796875 179.03125 400.582031 187.257812 390.449219 187.257812 C 380.316406 187.257812 372.101562 179.03125 372.101562 168.878906 C 372.101562 158.730469 380.316406 150.503906 390.449219 150.503906 C 400.582031 150.503906 408.796875 158.730469 408.796875 168.878906 Z M 408.796875 168.878906 "/>
<path style=" stroke:none;fill-rule:nonzero;fill:rgb(42.352941%,38.823529%,100%);fill-opacity:1;" d="M 359.351562 252.898438 L 358.972656 226.652344 C 357.574219 209.867188 364.996094 201.054688 371.46875 196.621094 C 374.839844 194.339844 379 193.542969 382.976562 194.414062 L 397.414062 197.542969 C 401.476562 198.429688 405 200.941406 407.167969 204.5 C 409.238281 207.855469 409.824219 211.921875 408.789062 215.726562 C 407.785156 219.253906 405.5625 222.304688 402.515625 224.335938 C 390.109375 233.105469 389.234375 247.84375 389.226562 247.992188 L 389.210938 248.296875 Z M 359.351562 252.898438 "/>
<path style=" stroke:none;fill-rule:nonzero;fill:rgb(42.352941%,38.823529%,100%);fill-opacity:1;" d="M 404.539062 233.382812 L 391.839844 233.382812 C 389.984375 233.378906 388.480469 231.875 388.480469 230.015625 L 388.480469 207.941406 C 388.480469 202.570312 392.828125 198.214844 398.191406 198.214844 C 403.554688 198.214844 407.902344 202.570312 407.902344 207.941406 L 407.902344 230.015625 C 407.898438 231.875 406.394531 233.378906 404.539062 233.382812 Z M 404.539062 233.382812 "/>
<path style=" stroke:none;fill-rule:nonzero;fill:rgb(100%,72.156863%,72.156863%);fill-opacity:1;" d="M 319.277344 237.550781 C 317.765625 239.359375 315.550781 240.433594 313.195312 240.503906 C 310.84375 240.570312 308.570312 239.628906 306.957031 237.910156 C 299.71875 230.308594 311.546875 218.894531 318.8125 226.511719 C 319.066406 226.773438 319.304688 227.054688 319.523438 227.351562 L 356.148438 226.4375 L 360.519531 218.429688 L 373.953125 223.65625 C 371.375 227.660156 368.414062 243.386719 361.667969 242.621094 C 360.78125 242.644531 320.183594 237.617188 319.277344 237.550781 Z M 319.277344 237.550781 "/>
<path style=" stroke:none;fill-rule:nonzero;fill:rgb(42.352941%,38.823529%,100%);fill-opacity:1;" d="M 368.273438 231.492188 L 358.035156 223.964844 C 356.539062 222.863281 356.21875 220.757812 357.3125 219.257812 L 370.351562 201.464844 C 373.523438 197.132812 379.601562 196.199219 383.925781 199.378906 C 388.25 202.554688 389.183594 208.644531 386.007812 212.976562 L 372.972656 230.769531 C 371.871094 232.265625 369.769531 232.589844 368.273438 231.492188 Z M 368.273438 231.492188 "/>
<path style=" stroke:none;fill-rule:nonzero;fill:rgb(18.431373%,18.039216%,25.490196%);fill-opacity:1;" d="M 394.125 178.433594 C 395.335938 175.898438 394.875 172.882812 392.960938 170.832031 C 389.507812 167.34375 384.117188 169.671875 379.449219 169.328125 C 371.679688 168.761719 366.390625 159.480469 368.707031 152.03125 C 371.027344 144.582031 379.273438 139.957031 387.046875 140.449219 C 394.824219 140.9375 401.863281 145.753906 406.546875 151.988281 C 409.757812 146.816406 417.636719 146.214844 422.722656 149.546875 C 427.808594 152.882812 430.441406 158.972656 431.527344 164.964844 C 432.613281 170.953125 432.4375 177.109375 433.351562 183.125 C 435.574219 197.714844 444.972656 211.453125 458.574219 217.121094 C 472.175781 222.792969 489.582031 219.148438 498.480469 207.386719 C 502.039062 236.699219 485.402344 264.726562 457.992188 275.59375 C 450.621094 278.515625 442.480469 280.066406 434.722656 278.441406 C 422.195312 275.820312 412.449219 265.089844 408.203125 252.996094 C 403.957031 240.902344 404.464844 227.636719 406.527344 214.984375 C 407.796875 207.191406 409.203125 197.964844 403.53125 192.480469 C 401.9375 191.15625 400.0625 190.207031 398.050781 189.714844 C 395.890625 189.0625 394.148438 187.449219 393.332031 185.339844 C 392.515625 183.230469 392.714844 180.863281 393.875 178.921875 C 393.96875 178.761719 394.050781 178.597656 394.125 178.433594 Z M 394.125 178.433594 "/>
<path style=" stroke:none;fill-rule:nonzero;fill:rgb(24.705882%,23.921569%,33.72549%);fill-opacity:1;" d="M 459.992188 425.1875 L 289.671875 425.1875 C 289.261719 425.1875 288.925781 424.851562 288.925781 424.4375 C 288.925781 424.027344 289.261719 423.691406 289.671875 423.691406 L 459.992188 423.691406 C 460.402344 423.691406 460.738281 424.027344 460.738281 424.4375 C 460.738281 424.851562 460.402344 425.1875 459.992188 425.1875 Z M 459.992188 425.1875 "/>
<path style=" stroke:none;fill-rule:nonzero;fill:rgb(24.705882%,23.921569%,33.72549%);fill-opacity:1;" d="M 156.1875 184.242188 C 155.054688 184.242188 153.9375 183.953125 152.945312 183.40625 L 4.257812 101.433594 C 3.898438 101.234375 3.765625 100.78125 3.964844 100.417969 C 4.164062 100.054688 4.617188 99.925781 4.980469 100.125 L 153.664062 182.09375 C 155.207031 182.949219 157.070312 182.964844 158.628906 182.140625 L 309.761719 102.28125 C 309.996094 102.15625 310.28125 102.164062 310.507812 102.308594 C 310.734375 102.449219 310.867188 102.703125 310.855469 102.96875 C 310.847656 103.238281 310.695312 103.480469 310.457031 103.601562 L 159.324219 183.460938 C 158.355469 183.976562 157.28125 184.242188 156.1875 184.242188 Z M 156.1875 184.242188 "/>
<path style=" stroke:none;fill-rule:nonzero;fill:rgb(24.705882%,23.921569%,33.72549%);fill-opacity:1;" d="M 47.484375 235.1875 L 26.570312 235.1875 C 23.269531 235.1875 20.59375 232.507812 20.59375 229.199219 C 20.59375 225.894531 23.269531 223.214844 26.570312 223.214844 L 47.484375 223.214844 C 50.785156 223.214844 53.460938 225.894531 53.460938 229.199219 C 53.460938 232.507812 50.785156 235.1875 47.484375 235.1875 Z M 47.484375 235.1875 "/>
<path style=" stroke:none;fill-rule:nonzero;fill:rgb(24.705882%,23.921569%,33.72549%);fill-opacity:1;" d="M 72.136719 255.390625 L 26.570312 255.390625 C 23.269531 255.390625 20.59375 252.710938 20.59375 249.402344 C 20.59375 246.097656 23.269531 243.417969 26.570312 243.417969 L 72.136719 243.417969 C 75.4375 243.417969 78.113281 246.097656 78.113281 249.402344 C 78.113281 252.710938 75.4375 255.390625 72.136719 255.390625 Z M 72.136719 255.390625 "/>
<path style=" stroke:none;fill-rule:nonzero;fill:rgb(42.352941%,38.823529%,100%);fill-opacity:1;" d="M 180.03125 184.304688 C 180.03125 197.53125 169.328125 208.25 156.128906 208.25 C 142.925781 208.25 132.222656 197.53125 132.222656 184.304688 C 132.222656 171.082031 142.925781 160.363281 156.128906 160.363281 C 169.328125 160.363281 180.03125 171.082031 180.03125 184.304688 Z M 180.03125 184.304688 "/>
</g>
</svg>
