<?xml version="1.0" standalone="no"?>
<!DOCTYPE svg PUBLIC "-//W3C//DTD SVG 20010904//EN"
 "http://www.w3.org/TR/2001/REC-SVG-20010904/DTD/svg10.dtd">
<svg version="1.0" xmlns="http://www.w3.org/2000/svg"
 width="512.000000pt" height="512.000000pt" viewBox="0 0 512.000000 512.000000"
 preserveAspectRatio="xMidYMid meet">

<g transform="translate(0.000000,512.000000) scale(0.100000,-0.100000)"
fill="#000000" stroke="none">
<path d="M1021 5026 c-13 -14 -25 -44 -30 -75 -4 -28 -10 -53 -12 -54 -2 -2
-25 -16 -51 -30 l-47 -27 -51 20 c-85 34 -112 15 -189 -132 -32 -59 -34 -67
-22 -95 7 -17 30 -43 51 -59 38 -28 40 -31 40 -86 0 -57 -1 -59 -51 -107 -63
-60 -62 -70 7 -189 61 -103 83 -115 163 -85 l56 20 35 -23 c19 -13 40 -23 47
-23 7 -1 15 -18 18 -38 14 -80 26 -104 61 -119 44 -18 175 -18 219 0 34 14 42
30 59 117 4 17 22 36 53 56 l48 29 56 -20 c80 -29 103 -17 163 86 69 119 70
129 7 189 -50 48 -51 50 -51 107 0 55 2 58 40 86 21 16 44 42 51 58 14 33 -1
72 -66 174 -46 72 -72 82 -143 55 l-54 -21 -46 27 c-26 15 -49 28 -51 30 -2 1
-8 26 -12 54 -5 31 -17 61 -30 75 -21 22 -30 24 -134 24 -104 0 -113 -2 -134
-24z m204 -128 c8 -58 22 -74 109 -124 65 -38 93 -41 155 -19 l41 14 30 -52
29 -52 -44 -41 -45 -41 0 -101 0 -100 45 -40 45 -40 -26 -46 c-14 -25 -30 -48
-34 -51 -5 -3 -26 1 -46 10 -54 22 -80 19 -147 -22 -93 -55 -105 -69 -112
-124 l-7 -49 -63 0 -63 0 -7 49 c-7 55 -19 69 -112 124 -67 41 -93 44 -147 22
-20 -9 -41 -13 -46 -10 -4 3 -20 26 -34 51 l-26 46 45 40 45 40 0 100 0 101
-45 41 -44 41 29 53 c17 28 32 52 34 52 2 0 20 -7 39 -15 55 -23 89 -18 153
19 87 50 101 66 109 124 l7 52 63 0 63 0 7 -52z"/>
<path d="M1063 4724 c-48 -17 -114 -77 -139 -126 -27 -52 -30 -156 -7 -209 63
-141 218 -200 351 -133 97 48 147 136 140 243 -6 78 -24 118 -79 171 -68 65
-173 87 -266 54z m176 -111 c71 -53 90 -134 48 -207 -58 -101 -204 -102 -262
-1 -50 85 -16 186 75 224 36 15 108 7 139 -16z"/>
<path d="M3480 4965 c-43 -19 -87 -60 -107 -99 -18 -34 -20 -124 -4 -154 16
-30 14 -36 -20 -51 -16 -7 -42 -31 -57 -54 -24 -35 -27 -52 -30 -134 -7 -164
14 -183 193 -183 l115 0 0 -80 c0 -96 16 -135 65 -156 50 -20 520 -20 570 0
49 21 65 60 65 156 l0 80 115 0 c179 0 200 19 193 183 -3 82 -6 99 -30 134
-15 23 -41 47 -57 54 -34 15 -36 21 -20 51 16 30 13 120 -5 155 -36 70 -125
120 -197 110 -82 -11 -147 -70 -173 -159 -5 -16 -9 -16 -42 7 -86 58 -182 58
-268 0 -33 -23 -37 -23 -42 -7 -3 9 -15 36 -26 60 -39 80 -158 123 -238 87z
m133 -113 c30 -27 39 -60 27 -98 -33 -99 -180 -79 -180 23 0 87 90 132 153 75z
m745 -8 c53 -60 12 -154 -67 -154 -47 0 -77 21 -91 64 -31 96 91 166 158 90z
m-379 -92 c40 -21 71 -73 71 -117 0 -64 -63 -125 -130 -125 -67 0 -130 61
-130 125 0 67 66 135 130 135 14 0 41 -8 59 -18z m-268 -211 l16 -38 -38 -17
c-22 -10 -54 -35 -71 -57 l-31 -39 -114 0 -113 0 0 69 c0 54 4 74 21 95 20 26
21 26 167 26 l147 0 16 -39z m748 13 c17 -21 21 -41 21 -95 l0 -69 -113 0
-114 0 -31 39 c-17 22 -49 47 -71 57 l-38 17 16 38 16 39 147 0 c146 0 147 0
167 -26z m-341 -165 c39 -24 53 -70 50 -161 l-3 -83 -245 0 -245 0 -3 70 c-4
93 3 128 34 158 32 32 43 34 234 32 115 -1 161 -5 178 -16z"/>
<path d="M2370 4311 c-273 -58 -506 -243 -630 -502 -58 -121 -80 -219 -87
-384 -5 -114 -9 -145 -25 -167 -47 -68 -63 -194 -34 -276 13 -37 13 -45 -6
-94 -30 -76 -36 -234 -13 -314 9 -32 28 -78 41 -102 l25 -43 -27 -67 c-24 -56
-28 -82 -29 -157 0 -80 3 -97 31 -155 17 -36 45 -82 63 -102 l31 -36 -64 -4
c-72 -4 -118 -29 -156 -85 -12 -18 -35 -36 -49 -40 -116 -28 -220 -139 -235
-253 -4 -25 -18 -357 -31 -738 -28 -769 -30 -731 38 -772 31 -20 60 -20 1347
-20 1287 0 1316 0 1347 20 68 41 66 3 38 772 -13 381 -27 711 -30 733 -17 120
-118 230 -236 258 -14 4 -37 22 -49 40 -38 56 -84 81 -156 85 l-64 4 31 36
c18 20 46 66 63 102 28 58 31 75 31 155 -1 75 -5 101 -29 157 l-27 67 25 43
c13 24 32 70 41 102 23 80 17 238 -13 314 -19 49 -19 57 -6 94 29 82 13 208
-34 276 -16 22 -20 53 -25 162 -8 160 -24 244 -71 351 -55 129 -95 187 -196
289 -143 143 -284 219 -477 256 -100 19 -249 17 -353 -5z m410 -111 c333 -96
559 -382 586 -742 7 -86 6 -91 -11 -84 -10 4 -39 11 -64 17 -32 7 -54 20 -73
44 -17 19 -42 36 -61 40 -45 10 -93 36 -163 88 -69 52 -103 64 -135 47 -12 -7
-52 -43 -90 -80 -168 -168 -393 -269 -600 -270 -100 0 -171 13 -307 58 l-114
37 6 96 c25 400 287 696 686 773 61 12 266 -3 340 -24z m212 -759 c32 -21 78
-45 103 -52 l45 -13 0 -287 c0 -253 -2 -295 -20 -364 -52 -204 -214 -367 -416
-419 -34 -9 -99 -16 -144 -16 -267 0 -494 176 -560 435 -16 64 -20 111 -20
265 l0 187 53 -9 c92 -18 280 -4 377 27 158 50 337 161 449 279 33 34 36 35
55 21 12 -9 47 -33 78 -54z m336 -170 c73 -38 112 -104 112 -191 0 -61 -25
-115 -74 -158 -30 -26 -89 -52 -118 -52 -5 0 -8 95 -8 210 l0 210 25 0 c14 0
42 -9 63 -19z m-1448 -233 c0 -93 -3 -168 -7 -168 -59 0 -141 58 -174 121 -37
73 -15 203 41 242 20 14 27 13 81 -6 l59 -22 0 -167z m-87 -252 c26 -9 59 -16
72 -16 19 0 25 -5 25 -22 0 -41 58 -189 95 -246 48 -71 115 -143 177 -188 l48
-36 0 -90 c0 -135 -7 -146 -152 -218 -66 -33 -128 -60 -139 -60 -58 0 -167 88
-204 164 -42 85 -43 145 -6 253 17 50 31 97 31 106 0 8 -17 50 -37 93 -32 67
-38 91 -41 159 -2 45 1 100 7 123 l12 42 32 -24 c18 -13 54 -31 80 -40z m1662
-76 c0 -101 -2 -108 -37 -184 -21 -43 -38 -85 -38 -93 0 -9 14 -56 31 -106 36
-103 36 -162 1 -241 -35 -78 -152 -176 -211 -176 -11 0 -73 27 -139 60 -146
73 -152 82 -152 222 0 90 1 95 23 105 43 20 146 124 193 195 46 69 104 211
104 256 0 17 6 22 24 22 38 0 121 30 152 55 26 21 30 22 39 7 6 -10 10 -64 10
-122z m-1055 -506 c102 -28 293 -17 393 21 15 6 17 -1 17 -71 0 -101 29 -169
91 -213 l42 -31 -383 0 -383 0 42 31 c62 44 91 112 91 213 0 70 2 77 18 71 9
-3 42 -13 72 -21z m1131 -423 l29 -29 0 -667 c0 -705 0 -712 -45 -729 -22 -8
-1888 -8 -1910 0 -45 17 -45 24 -45 729 l0 667 29 29 29 29 942 0 942 0 29
-29z m-2071 -370 l0 -269 -82 25 c-46 14 -84 26 -85 27 0 0 2 78 6 171 8 178
19 224 67 266 20 18 74 48 87 49 4 0 7 -121 7 -269z m2243 253 c93 -47 109
-88 118 -299 4 -93 6 -171 5 -173 -2 -1 -40 -13 -84 -26 l-82 -24 0 269 c0
148 2 269 5 269 4 0 20 -7 38 -16z m-2322 -606 l79 -21 0 -318 c0 -175 4 -329
9 -342 9 -22 6 -25 -28 -35 -20 -7 -50 -25 -66 -42 -25 -26 -29 -39 -29 -83 0
-29 8 -66 17 -85 l18 -32 -60 0 c-33 0 -62 4 -65 8 -5 9 21 836 30 920 3 28 8
52 11 52 3 0 41 -10 84 -22z m2450 20 c4 -14 36 -964 33 -970 -3 -4 -32 -8
-65 -8 l-60 0 18 32 c9 19 17 56 17 85 0 44 -4 57 -29 83 -16 17 -46 35 -66
42 -34 10 -37 13 -28 35 5 13 9 167 9 342 l0 318 73 21 c69 19 96 25 98 20z
m-165 -842 c17 -6 10 -47 -14 -84 -35 -54 11 -52 -1095 -52 l-1024 0 -34 23
c-41 28 -69 95 -46 112 15 10 2186 11 2213 1z"/>
<path d="M2242 3083 c-15 -6 -42 -56 -42 -77 0 -8 12 -28 26 -45 62 -74 175 1
130 87 -8 16 -23 32 -31 36 -19 7 -64 7 -83 -1z"/>
<path d="M2792 3083 c-7 -3 -19 -18 -28 -35 -45 -86 68 -162 130 -87 14 17 26
37 26 45 0 24 -28 71 -45 78 -19 7 -64 7 -83 -1z"/>
<path d="M2342 2678 c-21 -21 -14 -63 16 -90 56 -53 110 -72 202 -72 69 0 93
4 130 23 63 33 100 70 100 101 0 56 -42 65 -98 21 -20 -17 -58 -36 -84 -43
-61 -16 -127 0 -180 43 -39 31 -67 36 -86 17z"/>
<path d="M2274 1231 c-99 -42 -112 -243 -19 -301 30 -19 49 -20 306 -20 291 0
298 1 336 50 23 28 35 92 28 148 -5 42 -14 62 -40 91 l-33 36 -279 2 c-153 1
-287 -2 -299 -6z m541 -156 l0 -60 -255 0 -255 0 -3 49 c-5 82 -23 77 260 74
l253 -3 0 -60z"/>
<path d="M270 3528 c-71 -49 -70 -44 -70 -518 0 -474 -1 -469 70 -517 33 -23
37 -23 370 -23 470 0 440 -27 440 405 l0 290 -192 192 -193 193 -196 0 c-187
0 -198 -1 -229 -22z m352 -202 c4 -116 5 -126 31 -160 45 -58 70 -66 207 -66
l120 0 0 -249 c0 -214 -2 -252 -16 -265 -13 -14 -57 -16 -324 -16 -267 0 -311
2 -324 16 -14 13 -16 66 -16 424 0 358 2 411 16 424 13 13 42 16 159 16 l143
0 4 -124z m207 -124 c-43 -2 -76 2 -85 9 -10 8 -14 34 -14 88 l0 76 85 -85 86
-85 -72 -3z"/>
<path d="M4502 3448 c-8 -8 -12 -45 -12 -100 l0 -88 -114 0 c-145 0 -146 -1
-146 -116 l0 -84 -119 0 c-95 0 -123 -3 -135 -16 -14 -13 -16 -48 -16 -229 0
-210 0 -214 22 -229 19 -14 77 -16 428 -16 351 0 409 2 428 16 l22 15 0 410
c0 264 -4 417 -10 430 -10 18 -23 19 -173 19 -114 0 -167 -4 -175 -12z m258
-433 l0 -345 -85 0 -85 0 0 345 0 345 85 0 85 0 0 -345z m-270 -100 l0 -245
-80 0 -80 0 0 245 0 245 80 0 80 0 0 -245z m-260 -100 l0 -145 -85 0 -85 0 0
145 0 145 85 0 85 0 0 -145z"/>
</g>
</svg>
